<?xml version="1.0" encoding="UTF-8" standalone="no"?>
<!-- Generator: Adobe Illustrator 18.1.1, SVG Export Plug-In . SVG Version: 6.00 Build 0)  -->

<svg
   xmlns:dc="http://purl.org/dc/elements/1.1/"
   xmlns:cc="http://creativecommons.org/ns#"
   xmlns:rdf="http://www.w3.org/1999/02/22-rdf-syntax-ns#"
   xmlns:svg="http://www.w3.org/2000/svg"
   xmlns="http://www.w3.org/2000/svg"
   xmlns:sodipodi="http://sodipodi.sourceforge.net/DTD/sodipodi-0.dtd"
   xmlns:inkscape="http://www.inkscape.org/namespaces/inkscape"
   version="1.1"
   id="Layer_1"
   x="0px"
   y="0px"
   viewBox="0 0 100 100"
   enable-background="new 0 0 24 24"
   xml:space="preserve"
   inkscape:version="0.91 r13725"
   sodipodi:docname="Gear_icon.svg"
   width="100"
   height="100"><metadata
     id="metadata9"><rdf:RDF><cc:Work
         rdf:about=""><dc:format>image/svg+xml</dc:format><dc:type
           rdf:resource="http://purl.org/dc/dcmitype/StillImage" /><dc:title></dc:title></cc:Work></rdf:RDF></metadata><defs
     id="defs7" /><sodipodi:namedview
     pagecolor="#ffffff"
     bordercolor="#666666"
     borderopacity="1"
     objecttolerance="10"
     gridtolerance="10"
     guidetolerance="10"
     inkscape:pageopacity="0"
     inkscape:pageshadow="2"
     inkscape:window-width="1329"
     inkscape:window-height="741"
     id="namedview5"
     showgrid="false"
     inkscape:zoom="5.56"
     inkscape:cx="50"
     inkscape:cy="50"
     inkscape:window-x="37"
     inkscape:window-y="0"
     inkscape:window-maximized="1"
     inkscape:current-layer="Layer_1" /><path
     d="m 100.16657,59.02873 0,-17.990976 -11.255665,-1.861136 C 88.28559,36.695104 87.034961,34.21359 85.159017,30.49132 L 92.037479,21.185642 78.905869,8.1576937 69.526148,14.981858 c -3.126574,-1.861136 -6.253147,-3.101893 -8.754406,-3.722272 l -1.25063,-11.16681246 -18.134128,0 L 39.51104,11.259586 c -3.126574,0.620379 -5.627833,1.861136 -8.754406,3.722272 L 21.376912,8.1576937 8.245303,21.185642 14.49845,30.49132 c -1.875944,3.101892 -2.501259,5.583406 -3.751888,8.685298 l -10.63035068,1.240757 0,17.990976 11.25566468,1.861136 c 0.625315,3.101892 1.875945,5.583406 3.751889,8.685298 l -6.2531472,9.305677 13.1316092,13.027949 9.379721,-6.203785 c 2.501259,1.240757 5.627833,2.481514 8.754407,3.722271 l 1.875944,11.166812 18.759443,0 1.875944,-11.166812 c 3.126574,-0.620379 5.627833,-1.861136 8.754406,-3.722271 l 9.379722,6.824163 13.131609,-13.027948 -6.878462,-9.305677 c 1.875944,-3.101893 3.126574,-6.203785 3.751888,-8.685299 l 9.379721,-1.861135 z m -50.025179,9.305677 c -10.630351,0 -18.759443,-8.06492 -18.759443,-18.611355 0,-10.546434 8.129092,-18.611354 18.759443,-18.611354 10.630351,0 18.759442,8.06492 18.759442,18.611354 0,10.546435 -8.129091,18.611355 -18.759442,18.611355 z"
     id="path3"
     style="fill:#4d4d4d;fill-opacity:1"
     inkscape:connector-curvature="0" /></svg>